<svg xmlns="http://www.w3.org/2000/svg" width="18" height="18" fill="none"><path d="M8.764.944a8.26 8.26 0 0 0 0 16.52 8.26 8.26 0 0 0 0-16.52zm.474 3.35c.375-.44 1.008-.766 1.53-.787.067.61-.18 1.22-.54 1.66s-.958.78-1.542.736c-.078-.596.216-1.22.552-1.608zm2.974 8.318c-.434.634-.883 1.265-1.59 1.278-.696.013-.92-.413-1.716-.413s-1.045.4-1.704.426c-.683.025-1.204-.683-1.64-1.315-.894-1.29-1.576-3.648-.66-5.24.454-.79 1.268-1.3 2.15-1.304.672-.012 1.306.453 1.716.453s1.18-.56 1.99-.476c.34.014 1.3.136 1.9 1.03-.05.03-1.136.663-1.123 1.98.014 1.573 1.38 2.095 1.395 2.103-.013.036-.22.745-.72 1.477z" fill="#fff"/></svg>