<svg xmlns="http://www.w3.org/2000/svg" width="18" height="18" fill="none"><path d="M13.847.944H3.713C1.952.944.52 2.417.52 4.228v10.425c0 1.81 1.432 3.284 3.193 3.284h10.135c1.76 0 3.192-1.473 3.192-3.284V4.227c0-1.81-1.432-3.283-3.193-3.283zm.916 1.958l.365-.001v2.88l-2.79.01-.01-2.88 2.435-.008zm-8.34 4.794C6.95 6.943 7.8 6.45 8.78 6.45s1.83.494 2.357 1.247a3.03 3.03 0 0 1 .55 1.744c0 1.65-1.306 2.99-2.908 2.99s-2.908-1.34-2.908-2.99c0-.65.206-1.252.55-1.744zm9.008 6.956c0 .898-.7 1.628-1.583 1.628H3.713c-.873 0-1.583-.73-1.583-1.628V7.696h2.466c-.213.54-.333 1.127-.333 1.744 0 2.56 2.026 4.647 4.517 4.647S13.297 12 13.297 9.44a4.74 4.74 0 0 0-.333-1.744h2.467v6.956z" fill="#fff"/></svg>