<svg xmlns="http://www.w3.org/2000/svg" width="18" height="18" fill="none"><path d="M8.732 0C3.9 0 0 3.9 0 8.732s3.9 8.732 8.732 8.732 8.732-3.9 8.732-8.732S13.554 0 8.732 0zm3.543 12.852c-.142 0-.238-.05-.37-.13-1.267-.765-2.844-1.168-4.52-1.168-.934 0-1.874.12-2.754.303-.143.03-.323.087-.43.087-.33 0-.552-.264-.552-.55 0-.367.21-.55.475-.6 1.08-.246 2.153-.386 3.268-.386 1.91 0 3.613.438 5.08 1.317.218.127.346.257.346.58-.001.315-.257.546-.543.546zm.95-2.312c-.19 0-.308-.076-.437-.15-1.42-.842-3.39-1.402-5.545-1.402a11.06 11.06 0 0 0-2.85.365c-.17.047-.265.097-.424.097-.376 0-.682-.306-.682-.685a.69.69 0 0 1 .543-.729c.98-.27 1.984-.477 3.443-.477 2.286 0 4.498.57 6.235 1.6a.71.71 0 0 1 .399.69.68.68 0 0 1-.682.683zm1.083-2.688c-.178 0-.283-.043-.45-.134-1.58-.948-4.034-1.47-6.406-1.47-1.184 0-2.387.12-3.488.42-.127.032-.287.095-.448.095-.466 0-.823-.368-.823-.834 0-.474.294-.74.61-.835C4.55 4.73 5.94 4.558 7.45 4.558c2.564 0 5.262.527 7.232 1.685.266.15.45.377.45.792 0 .476-.383.818-.824.818z" fill="#fff"/></svg>